<svg width="463" height="169" viewBox="0 0 463 169" fill="none" xmlns="http://www.w3.org/2000/svg">
<path d="M149.623 106.999C149.197 106.999 148.855 106.871 148.599 106.615C148.343 106.359 148.215 106.018 148.215 105.591V75.1272C148.215 74.7005 148.343 74.3592 148.599 74.1032C148.855 73.8472 149.197 73.7192 149.623 73.7192H150.711C151.138 73.7192 151.479 73.8472 151.735 74.1032C151.991 74.3592 152.119 74.7005 152.119 75.1272V105.591C152.119 106.018 151.991 106.359 151.735 106.615C151.479 106.871 151.138 106.999 150.711 106.999H149.623ZM148.919 66.8712C148.493 66.8712 148.151 66.7432 147.895 66.4872C147.639 66.2312 147.511 65.8899 147.511 65.4632V63.0312C147.511 62.6045 147.639 62.2632 147.895 62.0072C148.151 61.7085 148.493 61.5592 148.919 61.5592H151.351C151.778 61.5592 152.119 61.7085 152.375 62.0072C152.674 62.2632 152.823 62.6045 152.823 63.0312V65.4632C152.823 65.8899 152.674 66.2312 152.375 66.4872C152.119 66.7432 151.778 66.8712 151.351 66.8712H148.919ZM163.425 89.6552C162.999 89.6552 162.657 89.5272 162.401 89.2712C162.145 89.0152 162.017 88.6739 162.017 88.2472V87.3512C162.017 86.9245 162.145 86.5832 162.401 86.3272C162.657 86.0712 162.999 85.9432 163.425 85.9432H182.305C182.732 85.9432 183.073 86.0712 183.329 86.3272C183.585 86.5832 183.713 86.9245 183.713 87.3512V88.2472C183.713 88.6739 183.585 89.0152 183.329 89.2712C183.073 89.5272 182.732 89.6552 182.305 89.6552H163.425ZM206.325 107.639C203.253 107.639 200.671 106.999 198.581 105.719C196.533 104.439 194.954 102.69 193.845 100.471C192.778 98.2525 192.202 95.7779 192.117 93.0472C192.074 92.4072 192.053 91.5112 192.053 90.3592C192.053 89.2072 192.074 88.3112 192.117 87.6712C192.202 84.8979 192.778 82.4232 193.845 80.2472C194.954 78.0285 196.533 76.2792 198.581 74.9992C200.671 73.7192 203.253 73.0792 206.325 73.0792C209.397 73.0792 211.957 73.7192 214.005 74.9992C216.095 76.2792 217.674 78.0285 218.741 80.2472C219.85 82.4232 220.447 84.8979 220.533 87.6712C220.575 88.3112 220.597 89.2072 220.597 90.3592C220.597 91.5112 220.575 92.4072 220.533 93.0472C220.447 95.7779 219.85 98.2525 218.741 100.471C217.674 102.69 216.095 104.439 214.005 105.719C211.957 106.999 209.397 107.639 206.325 107.639ZM206.325 103.927C209.311 103.927 211.743 102.967 213.621 101.047C215.498 99.1272 216.501 96.3539 216.629 92.7272C216.671 92.0872 216.693 91.2979 216.693 90.3592C216.693 89.4205 216.671 88.6312 216.629 87.9912C216.501 84.3219 215.498 81.5485 213.621 79.6712C211.743 77.7512 209.311 76.7912 206.325 76.7912C203.338 76.7912 200.906 77.7512 199.029 79.6712C197.151 81.5485 196.149 84.3219 196.021 87.9912C195.978 88.6312 195.957 89.4205 195.957 90.3592C195.957 91.2979 195.978 92.0872 196.021 92.7272C196.149 96.3539 197.151 99.1272 199.029 101.047C200.906 102.967 203.338 103.927 206.325 103.927ZM230.748 106.999C230.322 106.999 229.98 106.871 229.724 106.615C229.468 106.359 229.34 106.018 229.34 105.591V75.1272C229.34 74.7005 229.468 74.3592 229.724 74.1032C229.98 73.8472 230.322 73.7192 230.748 73.7192H231.836C232.263 73.7192 232.604 73.8472 232.86 74.1032C233.116 74.3592 233.244 74.7005 233.244 75.1272V78.1352C234.396 76.6419 235.783 75.4259 237.404 74.4872C239.068 73.5485 241.266 73.0792 243.996 73.0792C246.898 73.0792 249.308 73.7192 251.228 74.9992C253.191 76.2365 254.642 77.9432 255.58 80.1192C256.562 82.2525 257.052 84.6845 257.052 87.4152V105.591C257.052 106.018 256.924 106.359 256.668 106.615C256.412 106.871 256.071 106.999 255.644 106.999H254.556C254.13 106.999 253.788 106.871 253.532 106.615C253.276 106.359 253.148 106.018 253.148 105.591V87.7352C253.148 84.3219 252.316 81.6552 250.652 79.7352C248.988 77.7725 246.556 76.7912 243.356 76.7912C240.327 76.7912 237.874 77.7725 235.996 79.7352C234.162 81.6552 233.244 84.3219 233.244 87.7352V105.591C233.244 106.018 233.116 106.359 232.86 106.615C232.604 106.871 232.263 106.999 231.836 106.999H230.748ZM293.935 106.999C293.508 106.999 293.167 106.871 292.911 106.615C292.655 106.359 292.527 106.018 292.527 105.591V66.0392H279.855C279.428 66.0392 279.087 65.9112 278.831 65.6552C278.575 65.3992 278.447 65.0579 278.447 64.6312V63.6712C278.447 63.2019 278.575 62.8392 278.831 62.5832C279.087 62.3272 279.428 62.1992 279.855 62.1992H309.167C309.636 62.1992 309.999 62.3272 310.255 62.5832C310.511 62.8392 310.639 63.2019 310.639 63.6712V64.6312C310.639 65.0579 310.511 65.3992 310.255 65.6552C309.999 65.9112 309.636 66.0392 309.167 66.0392H296.559V105.591C296.559 106.018 296.431 106.359 296.175 106.615C295.919 106.871 295.556 106.999 295.087 106.999H293.935ZM323.567 107.639C319.429 107.639 316.143 106.295 313.711 103.607C311.279 100.877 309.893 97.3139 309.551 92.9192C309.509 92.2792 309.487 91.4259 309.487 90.3592C309.487 89.2925 309.509 88.4392 309.551 87.7992C309.765 84.8979 310.447 82.3379 311.599 80.1192C312.751 77.9005 314.33 76.1725 316.335 74.9352C318.383 73.6979 320.794 73.0792 323.567 73.0792C326.554 73.0792 329.093 73.7405 331.183 75.0632C333.274 76.3859 334.874 78.2845 335.983 80.7592C337.135 83.2339 337.711 86.1779 337.711 89.5912V90.5512C337.711 90.9779 337.562 91.3192 337.263 91.5752C337.007 91.8312 336.666 91.9592 336.239 91.9592H313.455C313.455 91.9592 313.455 92.0445 313.455 92.2152C313.455 92.3859 313.455 92.5139 313.455 92.5992C313.541 94.5192 313.989 96.3539 314.799 98.1032C315.61 99.8099 316.762 101.218 318.255 102.327C319.749 103.394 321.519 103.927 323.567 103.927C325.402 103.927 326.917 103.65 328.111 103.095C329.349 102.541 330.33 101.943 331.055 101.303C331.781 100.621 332.25 100.109 332.463 99.7672C332.847 99.2125 333.146 98.8925 333.359 98.8072C333.573 98.6792 333.914 98.6152 334.383 98.6152H335.407C335.791 98.6152 336.111 98.7432 336.367 98.9992C336.666 99.2125 336.794 99.5112 336.751 99.8952C336.709 100.493 336.367 101.239 335.727 102.135C335.13 102.989 334.255 103.842 333.103 104.695C331.994 105.549 330.629 106.253 329.007 106.807C327.386 107.362 325.573 107.639 323.567 107.639ZM313.455 88.3752H333.807V88.1192C333.807 85.9859 333.402 84.0659 332.591 82.3592C331.781 80.6525 330.607 79.3085 329.071 78.3272C327.535 77.3032 325.701 76.7912 323.567 76.7912C321.434 76.7912 319.599 77.3032 318.063 78.3272C316.57 79.3085 315.418 80.6525 314.607 82.3592C313.839 84.0659 313.455 85.9859 313.455 88.1192V88.3752ZM355.113 107.639C353.065 107.639 351.166 107.213 349.417 106.359C347.71 105.506 346.323 104.375 345.257 102.967C344.19 101.517 343.657 99.8952 343.657 98.1032C343.657 95.2019 344.83 92.8765 347.177 91.1272C349.523 89.3779 352.574 88.2472 356.329 87.7352L366.441 86.3272V84.0872C366.441 81.8259 365.737 80.0552 364.329 78.7752C362.963 77.4525 360.766 76.7912 357.737 76.7912C355.518 76.7912 353.726 77.2392 352.361 78.1352C350.995 78.9885 350.057 80.1192 349.545 81.5272C349.331 82.1672 348.926 82.4872 348.329 82.4872H347.305C346.793 82.4872 346.43 82.3592 346.217 82.1032C346.003 81.8045 345.897 81.4632 345.897 81.0792C345.897 80.4819 346.11 79.7352 346.537 78.8392C347.006 77.9432 347.71 77.0685 348.649 76.2152C349.587 75.3192 350.803 74.5725 352.297 73.9752C353.79 73.3779 355.603 73.0792 357.737 73.0792C360.254 73.0792 362.323 73.4205 363.945 74.1032C365.609 74.7859 366.889 75.6819 367.785 76.7912C368.723 77.8579 369.385 79.0525 369.769 80.3752C370.153 81.6979 370.345 82.9992 370.345 84.2792V105.591C370.345 106.018 370.217 106.359 369.961 106.615C369.705 106.871 369.363 106.999 368.937 106.999H367.849C367.422 106.999 367.081 106.871 366.825 106.615C366.569 106.359 366.441 106.018 366.441 105.591V102.583C365.929 103.351 365.203 104.119 364.265 104.887C363.326 105.655 362.11 106.317 360.617 106.871C359.166 107.383 357.331 107.639 355.113 107.639ZM355.753 103.927C357.715 103.927 359.507 103.501 361.129 102.647C362.75 101.794 364.03 100.493 364.969 98.7432C365.95 96.9512 366.441 94.7112 366.441 92.0232V89.8472L358.185 90.9992C354.686 91.4685 352.041 92.2792 350.249 93.4312C348.457 94.5832 347.561 96.0339 347.561 97.7832C347.561 99.1912 347.966 100.343 348.777 101.239C349.587 102.135 350.611 102.818 351.849 103.287C353.129 103.714 354.43 103.927 355.753 103.927ZM381.873 106.999C381.447 106.999 381.105 106.871 380.849 106.615C380.593 106.359 380.465 106.018 380.465 105.591V75.1272C380.465 74.7005 380.593 74.3592 380.849 74.1032C381.105 73.8472 381.447 73.7192 381.873 73.7192H382.961C383.388 73.7192 383.729 73.8472 383.985 74.1032C384.241 74.3592 384.369 74.7005 384.369 75.1272V77.3672C385.436 76.0019 386.695 74.9565 388.145 74.2312C389.639 73.4632 391.431 73.0792 393.521 73.0792C398.3 73.0792 401.713 75.0845 403.761 79.0952C404.743 77.2605 406.172 75.8099 408.049 74.7432C409.969 73.6339 412.167 73.0792 414.641 73.0792C416.903 73.0792 418.929 73.6125 420.721 74.6792C422.556 75.7032 423.985 77.2392 425.009 79.2872C426.076 81.3352 426.609 83.8952 426.609 86.9672V105.591C426.609 106.018 426.481 106.359 426.225 106.615C425.969 106.871 425.628 106.999 425.201 106.999H424.113C423.687 106.999 423.345 106.871 423.089 106.615C422.833 106.359 422.705 106.018 422.705 105.591V87.6072C422.705 84.7912 422.3 82.6152 421.489 81.0792C420.679 79.5005 419.612 78.3912 418.289 77.7512C416.967 77.1112 415.537 76.7912 414.001 76.7912C412.721 76.7912 411.42 77.1112 410.097 77.7512C408.775 78.3912 407.665 79.5005 406.769 81.0792C405.916 82.6152 405.489 84.7912 405.489 87.6072V105.591C405.489 106.018 405.361 106.359 405.105 106.615C404.849 106.871 404.508 106.999 404.081 106.999H402.993C402.567 106.999 402.225 106.871 401.969 106.615C401.713 106.359 401.585 106.018 401.585 105.591V87.6072C401.585 84.7912 401.159 82.6152 400.305 81.0792C399.452 79.5005 398.364 78.3912 397.041 77.7512C395.719 77.1112 394.332 76.7912 392.881 76.7912C391.601 76.7912 390.3 77.1112 388.977 77.7512C387.655 78.3912 386.545 79.5005 385.649 81.0792C384.796 82.6152 384.369 84.7699 384.369 87.5432V105.591C384.369 106.018 384.241 106.359 383.985 106.615C383.729 106.871 383.388 106.999 382.961 106.999H381.873ZM447.213 107.639C444.994 107.639 443.074 107.341 441.453 106.743C439.874 106.146 438.573 105.442 437.549 104.631C436.525 103.778 435.757 102.946 435.245 102.135C434.775 101.325 434.519 100.706 434.477 100.279C434.434 99.8099 434.583 99.4685 434.925 99.2552C435.266 98.9992 435.586 98.8712 435.885 98.8712H436.845C437.101 98.8712 437.314 98.9139 437.485 98.9992C437.698 99.0845 437.954 99.3192 438.253 99.7032C438.807 100.429 439.447 101.133 440.173 101.815C440.898 102.455 441.815 102.967 442.925 103.351C444.077 103.735 445.506 103.927 447.213 103.927C449.773 103.927 451.885 103.437 453.549 102.455C455.213 101.474 456.045 100.023 456.045 98.1032C456.045 96.9085 455.703 95.9485 455.021 95.2232C454.381 94.4979 453.271 93.8579 451.693 93.3032C450.114 92.7485 447.981 92.1725 445.293 91.5752C442.605 90.9352 440.535 90.1672 439.085 89.2712C437.677 88.3752 436.717 87.3512 436.205 86.1992C435.693 85.0045 435.437 83.7245 435.437 82.3592C435.437 80.8659 435.863 79.4152 436.717 78.0072C437.57 76.5565 438.829 75.3832 440.493 74.4872C442.199 73.5485 444.333 73.0792 446.893 73.0792C448.983 73.0792 450.754 73.3565 452.205 73.9112C453.698 74.4659 454.914 75.1485 455.853 75.9592C456.791 76.7272 457.474 77.4952 457.901 78.2632C458.37 79.0312 458.626 79.6499 458.669 80.1192C458.711 80.5459 458.583 80.8872 458.285 81.1432C457.986 81.3992 457.645 81.5272 457.261 81.5272H456.301C455.959 81.5272 455.682 81.4632 455.469 81.3352C455.255 81.1645 455.063 80.9512 454.893 80.6952C454.466 80.0125 453.954 79.3725 453.357 78.7752C452.759 78.1779 451.949 77.7085 450.925 77.3672C449.943 76.9832 448.599 76.7912 446.893 76.7912C444.333 76.7912 442.434 77.3245 441.197 78.3912C439.959 79.4152 439.341 80.7379 439.341 82.3592C439.341 83.2979 439.597 84.1299 440.109 84.8552C440.621 85.5379 441.581 86.1779 442.989 86.7752C444.397 87.3299 446.445 87.9272 449.133 88.5672C451.863 89.1645 454.018 89.9112 455.597 90.8072C457.175 91.6605 458.285 92.6845 458.925 93.8792C459.607 95.0739 459.949 96.4819 459.949 98.1032C459.949 99.8099 459.458 101.389 458.477 102.839C457.538 104.29 456.109 105.463 454.189 106.359C452.311 107.213 449.986 107.639 447.213 107.639Z" fill="white"/>
<path d="M32 91.628C32 90.1807 31.2182 88.8463 29.9557 88.1387L5.95572 74.6869C3.28938 73.1925 0 75.1196 0 78.1762V125.805C0 127.252 0.781786 128.586 2.04428 129.294L26.0443 142.746C28.7106 144.24 32 142.313 32 139.256V91.628Z" fill="#4A86E1"/>
<path d="M71 60.7428C71 59.2957 70.2183 57.9614 68.956 57.2537L44.956 43.7991C42.2897 42.3044 39 44.2315 39 47.2883V148.724C39 150.171 39.7819 151.506 41.0446 152.213L65.0446 165.662C67.7109 167.156 71 165.229 71 162.173V60.7428Z" fill="#4A86E1"/>
<path d="M73.0203 50.7964C74.2477 51.4929 75.7533 51.4923 76.9822 50.7949L104.433 35.2177C107.227 33.6322 107.111 29.579 104.231 28.1633L76.2504 14.4089C75.1192 13.8528 73.7904 13.8613 72.6647 14.4318L45.6393 28.128C42.793 29.5705 42.6934 33.5884 45.4649 35.161L73.0203 50.7964Z" fill="#4A86E1"/>
<path d="M26.0306 76.9764C28.7007 78.4703 32 76.5412 32 73.486L32 49.654C32 46.518 28.5422 44.6102 25.8742 46.2742L5.73243 58.8365C3.15111 60.4465 3.23704 64.223 5.88875 65.7066L26.0306 76.9764Z" fill="#4A86E1"/>
<path d="M79 60.7428C79 59.2957 79.7817 57.9614 81.044 57.2537L105.044 43.7991C107.71 42.3044 111 44.2315 111 47.2883V148.724C111 150.171 110.218 151.506 108.955 152.213L84.9554 165.662C82.2891 167.156 79 165.229 79 162.173V60.7428Z" fill="#4A86E1"/>
</svg>
