<svg width="111" height="169" viewBox="0 0 111 169" fill="none" xmlns="http://www.w3.org/2000/svg">
<path d="M32 91.628C32 90.1807 31.2182 88.8463 29.9557 88.1387L5.95572 74.6869C3.28938 73.1925 0 75.1196 0 78.1762V125.804C0 127.252 0.781786 128.586 2.04428 129.294L26.0443 142.746C28.7106 144.24 32 142.313 32 139.256V91.628Z" fill="#1E212A"/>
<path d="M71 60.7428C71 59.2957 70.2183 57.9614 68.956 57.2537L44.956 43.7991C42.2897 42.3043 39 44.2315 39 47.2882V148.724C39 150.171 39.7819 151.506 41.0446 152.213L65.0446 165.662C67.7109 167.156 71 165.229 71 162.173V60.7428Z" fill="#1E212A"/>
<path d="M73.0203 50.7964C74.2477 51.4928 75.7532 51.4923 76.9822 50.7949L104.433 35.2177C107.227 33.6322 107.111 29.5789 104.231 28.1633L76.2504 14.4089C75.1191 13.8528 73.7904 13.8613 72.6647 14.4318L45.6393 28.128C42.793 29.5704 42.6934 33.5884 45.4649 35.161L73.0203 50.7964Z" fill="#1E212A"/>
<path d="M26.0306 76.9763C28.7007 78.4703 32 76.5412 32 73.486L32 49.6539C32 46.5179 28.5422 44.6102 25.8742 46.2742L5.73243 58.8365C3.15111 60.4464 3.23704 64.2229 5.88875 65.7066L26.0306 76.9763Z" fill="#1E212A"/>
<path d="M79 60.7428C79 59.2957 79.7817 57.9614 81.044 57.2537L105.044 43.7991C107.71 42.3043 111 44.2315 111 47.2882V148.724C111 150.171 110.218 151.506 108.955 152.213L84.9554 165.662C82.2891 167.156 79 165.229 79 162.173V60.7428Z" fill="#1E212A"/>
</svg>
